# xmcd CD database file
#
# Track frame offsets:
#	150
#	56160
#	114837
#	150507
#	202460
#
# Disc length: 3639 seconds
#
# Revision: 3
# Processed by: cddbd v1.5.2PL0 Copyright (c) Steve Scherf et al.
# Submitted via: CDex 1.51
#
DISCID=410e3505
DTITLE=Stan Tracey Quartet (featuring Art Themen, Dave Green and Bryan Spring) - The Return of Captain Adventure [CD1]
DYEAR=1975
DGENRE=Jazz
TTITLE0=Friday the 31st
TTITLE1=They'll Call Us
TTITLE2=Doin' It For Art
TTITLE3=Afro Charlie Meets The White Ra
TTITLE4=See Meenah
EXTD=YEAR: 1975
EXTT0=
EXTT1=
EXTT2=
EXTT3=
EXTT4=
PLAYORDER=
